
        <svg width="96" height="96" xmlns="http://www.w3.org/2000/svg">
            <path style="fill:#3D3F59;fill-opacity:1;fill-rule:nonzero;stroke:none" d="M46.3 64c-1.6 1.465-3.3
            1.816-5.1 1.05-1.802-.765-2.7-2.218-2.7-4.35V35.2c0-2.067.898-3.485 2.7-4.25 1.8-.766 3.5-.415 5.1 
            1.05L59 44.8c.332.4.648.9.95 1.5.3.598.448 1.165.448 1.7 0 .602-.148 1.184-.449 1.75-.3.566-.617 
            1.016-.949 1.352Zm0 0" transform="matrix(1.4853 0 0 1.4853 -24.074 -23.607)"/> </svg> 