<svg width="88" height="88" viewBox="0 0 88 88" fill="none" xmlns="http://www.w3.org/2000/svg">
<circle cx="44" cy="44" r="44" fill="#F2F3FF"/>
<g clip-path="url(#clip0_14_2917)">
<path d="M28.4982 36.6416C28.7149 31.0017 33.441 26.4382 39.2076 26.4382C44.7574 26.4382 49.31 30.6143 49.8736 35.9958C52.7352 36.0388 55.5535 36.0819 58.4151 36.211C57.8948 26.0938 49.4834 18 39.2076 18C28.6282 18 20 26.5674 20 37.0721C20 37.2012 20 37.3304 20 37.4596C22.8183 37.1151 25.6799 36.8568 28.4982 36.6416Z" fill="#6677FB"/>
<path d="M54.1233 49.0407L54.21 48.9116C56.4213 46.1562 57.7654 42.9704 58.2423 39.5262C55.3373 39.5262 52.4757 39.5262 49.5707 39.6123C48.4001 44.2619 44.1943 47.6631 39.2082 47.6631C34.7423 47.6631 30.8835 44.9077 29.2792 41.033C26.4176 41.3344 23.556 41.7219 20.6943 42.1524C22.9489 50.2031 30.4065 56.1013 39.2082 56.1013C42.0264 56.1013 44.8014 55.4985 47.3595 54.2931L47.4895 54.25L47.5763 54.3361L59.4563 68.7155C60.2801 69.7057 61.4508 70.2654 62.7515 70.2654C63.7488 70.2654 64.7027 69.921 65.4397 69.3183C66.3069 68.5864 66.8705 67.5962 66.9573 66.4768C67.044 65.3575 66.7405 64.2812 66.0034 63.3771L54.1233 49.0407Z" fill="#202C46"/>
</g>
<defs>
<clipPath id="clip0_14_2917">
<rect width="47" height="52.2222" fill="white" transform="translate(20 18)"/>
</clipPath>
</defs>
</svg>
